<?xml version="1.0" encoding="utf-8" standalone="no"?>
<!DOCTYPE svg PUBLIC "-//W3C//DTD SVG 1.1//EN"
  "http://www.w3.org/Graphics/SVG/1.1/DTD/svg11.dtd">
<svg xmlns:xlink="http://www.w3.org/1999/xlink" width="216pt" height="360pt" viewBox="0 0 216 360" xmlns="http://www.w3.org/2000/svg" version="1.1">
 <metadata>
  <rdf:RDF xmlns:dc="http://purl.org/dc/elements/1.1/" xmlns:cc="http://creativecommons.org/ns#" xmlns:rdf="http://www.w3.org/1999/02/22-rdf-syntax-ns#">
   <cc:Work>
    <dc:type rdf:resource="http://purl.org/dc/dcmitype/StillImage"/>
    <dc:date>2025-05-06T21:54:44.711556</dc:date>
    <dc:format>image/svg+xml</dc:format>
    <dc:creator>
     <cc:Agent>
      <dc:title>Matplotlib v3.10.0, https://matplotlib.org/</dc:title>
     </cc:Agent>
    </dc:creator>
   </cc:Work>
  </rdf:RDF>
 </metadata>
 <defs>
  <style type="text/css">*{stroke-linejoin: round; stroke-linecap: butt}</style>
 </defs>
 <g id="figure_1">
  <g id="patch_1">
   <path d="M 0 360 
L 216 360 
L 216 0 
L 0 0 
z
" style="fill: #ffffff"/>
  </g>
  <g id="axes_1">
   <g id="patch_2">
    <path d="M 14.3 345.7 
L 205.2 345.7 
L 205.2 10.8 
L 14.3 10.8 
z
" style="fill: #ffffff"/>
   </g>
   <g id="PathCollection_1">
    <path d="M 62.025 103.292077 
C 63.649031 103.292077 65.206764 102.646843 66.355127 101.49848 
C 67.50349 100.350117 68.148724 98.792383 68.148724 97.168353 
C 68.148724 95.544322 67.50349 93.986589 66.355127 92.838226 
C 65.206764 91.689863 63.649031 91.044628 62.025 91.044628 
C 60.400969 91.044628 58.843236 91.689863 57.694873 92.838226 
C 56.54651 93.986589 55.901276 95.544322 55.901276 97.168353 
C 55.901276 98.792383 56.54651 100.350117 57.694873 101.49848 
C 58.843236 102.646843 60.400969 103.292077 62.025 103.292077 
z
" clip-path="url(#pf2bd7740de)" style="fill-opacity: 0.85; stroke: #ffffff; stroke-opacity: 0.85; stroke-width: 0.979796"/>
    <path d="M 55.901276 137.126397 
L 68.148724 137.126397 
L 68.148724 124.878948 
L 55.901276 124.878948 
z
" clip-path="url(#pf2bd7740de)" style="fill: #ff2a00; fill-opacity: 0.85; stroke: #ffffff; stroke-opacity: 0.85; stroke-width: 0.979796"/>
    <path d="M 157.475 116.297729 
C 159.099031 116.297729 160.656764 115.652495 161.805127 114.504132 
C 162.95349 113.355769 163.598724 111.798035 163.598724 110.174005 
C 163.598724 108.549974 162.95349 106.992241 161.805127 105.843878 
C 160.656764 104.695515 159.099031 104.05028 157.475 104.05028 
C 155.850969 104.05028 154.293236 104.695515 153.144873 105.843878 
C 151.99651 106.992241 151.351276 108.549974 151.351276 110.174005 
C 151.351276 111.798035 151.99651 113.355769 153.144873 114.504132 
C 154.293236 115.652495 155.850969 116.297729 157.475 116.297729 
z
" clip-path="url(#pf2bd7740de)" style="fill-opacity: 0.85; stroke: #ffffff; stroke-opacity: 0.85; stroke-width: 0.979796"/>
    <path d="M 151.351276 175.631928 
L 163.598724 175.631928 
L 163.598724 163.384479 
L 151.351276 163.384479 
z
" clip-path="url(#pf2bd7740de)" style="fill: #ff2a00; fill-opacity: 0.85; stroke: #ffffff; stroke-opacity: 0.85; stroke-width: 0.979796"/>
   </g>
   <g id="matplotlib.axis_1">
    <g id="xtick_1">
     <g id="line2d_1">
      <path d="M 62.025 345.7 
L 62.025 10.8 
" clip-path="url(#pf2bd7740de)" style="fill: none; stroke: #808080; stroke-opacity: 0.37; stroke-width: 1.5; stroke-linecap: square"/>
     </g>
     <g id="line2d_2">
      <defs>
       <path id="m08598cc126" d="M 0 0 
L 0 3.5 
" style="stroke: #000000; stroke-width: 0.8"/>
      </defs>
      <g>
       <use xlink:href="#m08598cc126" x="62.025" y="345.7" style="stroke: #000000; stroke-width: 0.8"/>
      </g>
     </g>
    </g>
    <g id="xtick_2">
     <g id="line2d_3">
      <path d="M 157.475 345.7 
L 157.475 10.8 
" clip-path="url(#pf2bd7740de)" style="fill: none; stroke: #808080; stroke-opacity: 0.37; stroke-width: 1.5; stroke-linecap: square"/>
     </g>
     <g id="line2d_4">
      <g>
       <use xlink:href="#m08598cc126" x="157.475" y="345.7" style="stroke: #000000; stroke-width: 0.8"/>
      </g>
     </g>
    </g>
   </g>
   <g id="matplotlib.axis_2">
    <g id="ytick_1">
     <g id="line2d_5">
      <path d="M 14.3 319.260526 
L 205.2 319.260526 
" clip-path="url(#pf2bd7740de)" style="fill: none; stroke: #808080; stroke-opacity: 0.37; stroke-width: 1.5; stroke-linecap: square"/>
     </g>
     <g id="line2d_6">
      <defs>
       <path id="m87fdb15d9d" d="M 0 0 
L -3.5 0 
" style="stroke: #000000; stroke-width: 0.8"/>
      </defs>
      <g>
       <use xlink:href="#m87fdb15d9d" x="14.3" y="319.260526" style="stroke: #000000; stroke-width: 0.8"/>
      </g>
     </g>
    </g>
    <g id="ytick_2">
     <g id="line2d_7">
      <path d="M 14.3 231.128947 
L 205.2 231.128947 
" clip-path="url(#pf2bd7740de)" style="fill: none; stroke: #808080; stroke-opacity: 0.37; stroke-width: 1.5; stroke-linecap: square"/>
     </g>
     <g id="line2d_8">
      <g>
       <use xlink:href="#m87fdb15d9d" x="14.3" y="231.128947" style="stroke: #000000; stroke-width: 0.8"/>
      </g>
     </g>
    </g>
    <g id="ytick_3">
     <g id="line2d_9">
      <path d="M 14.3 142.997368 
L 205.2 142.997368 
" clip-path="url(#pf2bd7740de)" style="fill: none; stroke: #808080; stroke-opacity: 0.37; stroke-width: 1.5; stroke-linecap: square"/>
     </g>
     <g id="line2d_10">
      <g>
       <use xlink:href="#m87fdb15d9d" x="14.3" y="142.997368" style="stroke: #000000; stroke-width: 0.8"/>
      </g>
     </g>
    </g>
    <g id="ytick_4">
     <g id="line2d_11">
      <path d="M 14.3 54.865789 
L 205.2 54.865789 
" clip-path="url(#pf2bd7740de)" style="fill: none; stroke: #808080; stroke-opacity: 0.37; stroke-width: 1.5; stroke-linecap: square"/>
     </g>
     <g id="line2d_12">
      <g>
       <use xlink:href="#m87fdb15d9d" x="14.3" y="54.865789" style="stroke: #000000; stroke-width: 0.8"/>
      </g>
     </g>
    </g>
   </g>
   <g id="line2d_13"/>
   <g id="line2d_14"/>
   <g id="LineCollection_1">
    <path d="M 62.025 108.079666 
L 62.025 86.257039 
" clip-path="url(#pf2bd7740de)" style="fill: none; stroke: #000000; stroke-opacity: 0.75; stroke-width: 3"/>
   </g>
   <g id="LineCollection_2">
    <path d="M 62.025 148.213216 
L 62.025 113.792129 
" clip-path="url(#pf2bd7740de)" style="fill: none; stroke: #ff2a00; stroke-opacity: 0.75; stroke-width: 3"/>
   </g>
   <g id="LineCollection_3">
    <path d="M 157.475 121.6406 
L 157.475 98.707409 
" clip-path="url(#pf2bd7740de)" style="fill: none; stroke: #000000; stroke-opacity: 0.75; stroke-width: 3"/>
   </g>
   <g id="LineCollection_4">
    <path d="M 157.475 185.103418 
L 157.475 153.912989 
" clip-path="url(#pf2bd7740de)" style="fill: none; stroke: #ff2a00; stroke-opacity: 0.75; stroke-width: 3"/>
   </g>
   <g id="line2d_15">
    <path d="M 14.3 319.260526 
L 205.2 319.260526 
" clip-path="url(#pf2bd7740de)" style="fill: none; stroke-dasharray: 6.29,2.72; stroke-dashoffset: 0; stroke: #000000; stroke-width: 1.7"/>
   </g>
   <g id="patch_3">
    <path d="M 14.3 345.7 
L 14.3 10.8 
" style="fill: none; stroke: #000000; stroke-width: 2; stroke-linejoin: miter; stroke-linecap: square"/>
   </g>
   <g id="patch_4">
    <path d="M 205.2 345.7 
L 205.2 10.8 
" style="fill: none; stroke: #000000; stroke-width: 2; stroke-linejoin: miter; stroke-linecap: square"/>
   </g>
   <g id="patch_5">
    <path d="M 14.3 345.7 
L 205.2 345.7 
" style="fill: none; stroke: #000000; stroke-width: 2; stroke-linejoin: miter; stroke-linecap: square"/>
   </g>
   <g id="patch_6">
    <path d="M 14.3 10.8 
L 205.2 10.8 
" style="fill: none; stroke: #000000; stroke-width: 2; stroke-linejoin: miter; stroke-linecap: square"/>
   </g>
   <g id="legend_1">
    <g id="patch_7">
     <path d="M 100.19375 62.834375 
L 198.2 62.834375 
Q 200.2 62.834375 200.2 60.834375 
L 200.2 17.8 
Q 200.2 15.8 198.2 15.8 
L 100.19375 15.8 
Q 98.19375 15.8 98.19375 17.8 
L 98.19375 60.834375 
Q 98.19375 62.834375 100.19375 62.834375 
z
" style="fill: #ffffff; opacity: 0.8; stroke: #cccccc; stroke-linejoin: miter"/>
    </g>
    <g id="text_1">
     <!-- Distractor Emotion -->
     <g transform="translate(102.19375 27.398438) scale(0.1 -0.1)">
      <defs>
       <path id="DejaVuSans-44" d="M 1259 4147 
L 1259 519 
L 2022 519 
Q 2988 519 3436 956 
Q 3884 1394 3884 2338 
Q 3884 3275 3436 3711 
Q 2988 4147 2022 4147 
L 1259 4147 
z
M 628 4666 
L 1925 4666 
Q 3281 4666 3915 4102 
Q 4550 3538 4550 2338 
Q 4550 1131 3912 565 
Q 3275 0 1925 0 
L 628 0 
L 628 4666 
z
" transform="scale(0.015625)"/>
       <path id="DejaVuSans-69" d="M 603 3500 
L 1178 3500 
L 1178 0 
L 603 0 
L 603 3500 
z
M 603 4863 
L 1178 4863 
L 1178 4134 
L 603 4134 
L 603 4863 
z
" transform="scale(0.015625)"/>
       <path id="DejaVuSans-73" d="M 2834 3397 
L 2834 2853 
Q 2591 2978 2328 3040 
Q 2066 3103 1784 3103 
Q 1356 3103 1142 2972 
Q 928 2841 928 2578 
Q 928 2378 1081 2264 
Q 1234 2150 1697 2047 
L 1894 2003 
Q 2506 1872 2764 1633 
Q 3022 1394 3022 966 
Q 3022 478 2636 193 
Q 2250 -91 1575 -91 
Q 1294 -91 989 -36 
Q 684 19 347 128 
L 347 722 
Q 666 556 975 473 
Q 1284 391 1588 391 
Q 1994 391 2212 530 
Q 2431 669 2431 922 
Q 2431 1156 2273 1281 
Q 2116 1406 1581 1522 
L 1381 1569 
Q 847 1681 609 1914 
Q 372 2147 372 2553 
Q 372 3047 722 3315 
Q 1072 3584 1716 3584 
Q 2034 3584 2315 3537 
Q 2597 3491 2834 3397 
z
" transform="scale(0.015625)"/>
       <path id="DejaVuSans-74" d="M 1172 4494 
L 1172 3500 
L 2356 3500 
L 2356 3053 
L 1172 3053 
L 1172 1153 
Q 1172 725 1289 603 
Q 1406 481 1766 481 
L 2356 481 
L 2356 0 
L 1766 0 
Q 1100 0 847 248 
Q 594 497 594 1153 
L 594 3053 
L 172 3053 
L 172 3500 
L 594 3500 
L 594 4494 
L 1172 4494 
z
" transform="scale(0.015625)"/>
       <path id="DejaVuSans-72" d="M 2631 2963 
Q 2534 3019 2420 3045 
Q 2306 3072 2169 3072 
Q 1681 3072 1420 2755 
Q 1159 2438 1159 1844 
L 1159 0 
L 581 0 
L 581 3500 
L 1159 3500 
L 1159 2956 
Q 1341 3275 1631 3429 
Q 1922 3584 2338 3584 
Q 2397 3584 2469 3576 
Q 2541 3569 2628 3553 
L 2631 2963 
z
" transform="scale(0.015625)"/>
       <path id="DejaVuSans-61" d="M 2194 1759 
Q 1497 1759 1228 1600 
Q 959 1441 959 1056 
Q 959 750 1161 570 
Q 1363 391 1709 391 
Q 2188 391 2477 730 
Q 2766 1069 2766 1631 
L 2766 1759 
L 2194 1759 
z
M 3341 1997 
L 3341 0 
L 2766 0 
L 2766 531 
Q 2569 213 2275 61 
Q 1981 -91 1556 -91 
Q 1019 -91 701 211 
Q 384 513 384 1019 
Q 384 1609 779 1909 
Q 1175 2209 1959 2209 
L 2766 2209 
L 2766 2266 
Q 2766 2663 2505 2880 
Q 2244 3097 1772 3097 
Q 1472 3097 1187 3025 
Q 903 2953 641 2809 
L 641 3341 
Q 956 3463 1253 3523 
Q 1550 3584 1831 3584 
Q 2591 3584 2966 3190 
Q 3341 2797 3341 1997 
z
" transform="scale(0.015625)"/>
       <path id="DejaVuSans-63" d="M 3122 3366 
L 3122 2828 
Q 2878 2963 2633 3030 
Q 2388 3097 2138 3097 
Q 1578 3097 1268 2742 
Q 959 2388 959 1747 
Q 959 1106 1268 751 
Q 1578 397 2138 397 
Q 2388 397 2633 464 
Q 2878 531 3122 666 
L 3122 134 
Q 2881 22 2623 -34 
Q 2366 -91 2075 -91 
Q 1284 -91 818 406 
Q 353 903 353 1747 
Q 353 2603 823 3093 
Q 1294 3584 2113 3584 
Q 2378 3584 2631 3529 
Q 2884 3475 3122 3366 
z
" transform="scale(0.015625)"/>
       <path id="DejaVuSans-6f" d="M 1959 3097 
Q 1497 3097 1228 2736 
Q 959 2375 959 1747 
Q 959 1119 1226 758 
Q 1494 397 1959 397 
Q 2419 397 2687 759 
Q 2956 1122 2956 1747 
Q 2956 2369 2687 2733 
Q 2419 3097 1959 3097 
z
M 1959 3584 
Q 2709 3584 3137 3096 
Q 3566 2609 3566 1747 
Q 3566 888 3137 398 
Q 2709 -91 1959 -91 
Q 1206 -91 779 398 
Q 353 888 353 1747 
Q 353 2609 779 3096 
Q 1206 3584 1959 3584 
z
" transform="scale(0.015625)"/>
       <path id="DejaVuSans-20" transform="scale(0.015625)"/>
       <path id="DejaVuSans-45" d="M 628 4666 
L 3578 4666 
L 3578 4134 
L 1259 4134 
L 1259 2753 
L 3481 2753 
L 3481 2222 
L 1259 2222 
L 1259 531 
L 3634 531 
L 3634 0 
L 628 0 
L 628 4666 
z
" transform="scale(0.015625)"/>
       <path id="DejaVuSans-6d" d="M 3328 2828 
Q 3544 3216 3844 3400 
Q 4144 3584 4550 3584 
Q 5097 3584 5394 3201 
Q 5691 2819 5691 2113 
L 5691 0 
L 5113 0 
L 5113 2094 
Q 5113 2597 4934 2840 
Q 4756 3084 4391 3084 
Q 3944 3084 3684 2787 
Q 3425 2491 3425 1978 
L 3425 0 
L 2847 0 
L 2847 2094 
Q 2847 2600 2669 2842 
Q 2491 3084 2119 3084 
Q 1678 3084 1418 2786 
Q 1159 2488 1159 1978 
L 1159 0 
L 581 0 
L 581 3500 
L 1159 3500 
L 1159 2956 
Q 1356 3278 1631 3431 
Q 1906 3584 2284 3584 
Q 2666 3584 2933 3390 
Q 3200 3197 3328 2828 
z
" transform="scale(0.015625)"/>
       <path id="DejaVuSans-6e" d="M 3513 2113 
L 3513 0 
L 2938 0 
L 2938 2094 
Q 2938 2591 2744 2837 
Q 2550 3084 2163 3084 
Q 1697 3084 1428 2787 
Q 1159 2491 1159 1978 
L 1159 0 
L 581 0 
L 581 3500 
L 1159 3500 
L 1159 2956 
Q 1366 3272 1645 3428 
Q 1925 3584 2291 3584 
Q 2894 3584 3203 3211 
Q 3513 2838 3513 2113 
z
" transform="scale(0.015625)"/>
      </defs>
      <use xlink:href="#DejaVuSans-44"/>
      <use xlink:href="#DejaVuSans-69" transform="translate(77.001953 0)"/>
      <use xlink:href="#DejaVuSans-73" transform="translate(104.785156 0)"/>
      <use xlink:href="#DejaVuSans-74" transform="translate(156.884766 0)"/>
      <use xlink:href="#DejaVuSans-72" transform="translate(196.09375 0)"/>
      <use xlink:href="#DejaVuSans-61" transform="translate(237.207031 0)"/>
      <use xlink:href="#DejaVuSans-63" transform="translate(298.486328 0)"/>
      <use xlink:href="#DejaVuSans-74" transform="translate(353.466797 0)"/>
      <use xlink:href="#DejaVuSans-6f" transform="translate(392.675781 0)"/>
      <use xlink:href="#DejaVuSans-72" transform="translate(453.857422 0)"/>
      <use xlink:href="#DejaVuSans-20" transform="translate(494.970703 0)"/>
      <use xlink:href="#DejaVuSans-45" transform="translate(526.757812 0)"/>
      <use xlink:href="#DejaVuSans-6d" transform="translate(589.941406 0)"/>
      <use xlink:href="#DejaVuSans-6f" transform="translate(687.353516 0)"/>
      <use xlink:href="#DejaVuSans-74" transform="translate(748.535156 0)"/>
      <use xlink:href="#DejaVuSans-69" transform="translate(787.744141 0)"/>
      <use xlink:href="#DejaVuSans-6f" transform="translate(815.527344 0)"/>
      <use xlink:href="#DejaVuSans-6e" transform="translate(876.708984 0)"/>
     </g>
    </g>
    <g id="line2d_16">
     <defs>
      <path id="m6755eb1013" d="M 0 6.123724 
C 1.624031 6.123724 3.181764 5.47849 4.330127 4.330127 
C 5.47849 3.181764 6.123724 1.624031 6.123724 0 
C 6.123724 -1.624031 5.47849 -3.181764 4.330127 -4.330127 
C 3.181764 -5.47849 1.624031 -6.123724 0 -6.123724 
C -1.624031 -6.123724 -3.181764 -5.47849 -4.330127 -4.330127 
C -5.47849 -3.181764 -6.123724 -1.624031 -6.123724 0 
C -6.123724 1.624031 -5.47849 3.181764 -4.330127 4.330127 
C -3.181764 5.47849 -1.624031 6.123724 0 6.123724 
z
" style="stroke: #ffffff; stroke-opacity: 0.85; stroke-width: 0.979796"/>
     </defs>
     <g>
      <use xlink:href="#m6755eb1013" x="115.057812" y="38.576563" style="fill-opacity: 0.85; stroke: #ffffff; stroke-opacity: 0.85; stroke-width: 0.979796"/>
     </g>
    </g>
    <g id="text_2">
     <!-- congruent -->
     <g transform="translate(133.057812 42.076563) scale(0.1 -0.1)">
      <defs>
       <path id="DejaVuSans-67" d="M 2906 1791 
Q 2906 2416 2648 2759 
Q 2391 3103 1925 3103 
Q 1463 3103 1205 2759 
Q 947 2416 947 1791 
Q 947 1169 1205 825 
Q 1463 481 1925 481 
Q 2391 481 2648 825 
Q 2906 1169 2906 1791 
z
M 3481 434 
Q 3481 -459 3084 -895 
Q 2688 -1331 1869 -1331 
Q 1566 -1331 1297 -1286 
Q 1028 -1241 775 -1147 
L 775 -588 
Q 1028 -725 1275 -790 
Q 1522 -856 1778 -856 
Q 2344 -856 2625 -561 
Q 2906 -266 2906 331 
L 2906 616 
Q 2728 306 2450 153 
Q 2172 0 1784 0 
Q 1141 0 747 490 
Q 353 981 353 1791 
Q 353 2603 747 3093 
Q 1141 3584 1784 3584 
Q 2172 3584 2450 3431 
Q 2728 3278 2906 2969 
L 2906 3500 
L 3481 3500 
L 3481 434 
z
" transform="scale(0.015625)"/>
       <path id="DejaVuSans-75" d="M 544 1381 
L 544 3500 
L 1119 3500 
L 1119 1403 
Q 1119 906 1312 657 
Q 1506 409 1894 409 
Q 2359 409 2629 706 
Q 2900 1003 2900 1516 
L 2900 3500 
L 3475 3500 
L 3475 0 
L 2900 0 
L 2900 538 
Q 2691 219 2414 64 
Q 2138 -91 1772 -91 
Q 1169 -91 856 284 
Q 544 659 544 1381 
z
M 1991 3584 
L 1991 3584 
z
" transform="scale(0.015625)"/>
       <path id="DejaVuSans-65" d="M 3597 1894 
L 3597 1613 
L 953 1613 
Q 991 1019 1311 708 
Q 1631 397 2203 397 
Q 2534 397 2845 478 
Q 3156 559 3463 722 
L 3463 178 
Q 3153 47 2828 -22 
Q 2503 -91 2169 -91 
Q 1331 -91 842 396 
Q 353 884 353 1716 
Q 353 2575 817 3079 
Q 1281 3584 2069 3584 
Q 2775 3584 3186 3129 
Q 3597 2675 3597 1894 
z
M 3022 2063 
Q 3016 2534 2758 2815 
Q 2500 3097 2075 3097 
Q 1594 3097 1305 2825 
Q 1016 2553 972 2059 
L 3022 2063 
z
" transform="scale(0.015625)"/>
      </defs>
      <use xlink:href="#DejaVuSans-63"/>
      <use xlink:href="#DejaVuSans-6f" transform="translate(54.980469 0)"/>
      <use xlink:href="#DejaVuSans-6e" transform="translate(116.162109 0)"/>
      <use xlink:href="#DejaVuSans-67" transform="translate(179.541016 0)"/>
      <use xlink:href="#DejaVuSans-72" transform="translate(243.017578 0)"/>
      <use xlink:href="#DejaVuSans-75" transform="translate(284.130859 0)"/>
      <use xlink:href="#DejaVuSans-65" transform="translate(347.509766 0)"/>
      <use xlink:href="#DejaVuSans-6e" transform="translate(409.033203 0)"/>
      <use xlink:href="#DejaVuSans-74" transform="translate(472.412109 0)"/>
     </g>
    </g>
    <g id="line2d_17">
     <defs>
      <path id="ma8ac20e984" d="M -6.123724 6.123724 
L 6.123724 6.123724 
L 6.123724 -6.123724 
L -6.123724 -6.123724 
z
" style="stroke: #ffffff; stroke-opacity: 0.85; stroke-width: 0.979796; stroke-linejoin: miter"/>
     </defs>
     <g>
      <use xlink:href="#ma8ac20e984" x="115.057812" y="53.254688" style="fill: #ff2a00; fill-opacity: 0.85; stroke: #ffffff; stroke-opacity: 0.85; stroke-width: 0.979796; stroke-linejoin: miter"/>
     </g>
    </g>
    <g id="text_3">
     <!-- incongruent -->
     <g transform="translate(133.057812 56.754688) scale(0.1 -0.1)">
      <use xlink:href="#DejaVuSans-69"/>
      <use xlink:href="#DejaVuSans-6e" transform="translate(27.783203 0)"/>
      <use xlink:href="#DejaVuSans-63" transform="translate(91.162109 0)"/>
      <use xlink:href="#DejaVuSans-6f" transform="translate(146.142578 0)"/>
      <use xlink:href="#DejaVuSans-6e" transform="translate(207.324219 0)"/>
      <use xlink:href="#DejaVuSans-67" transform="translate(270.703125 0)"/>
      <use xlink:href="#DejaVuSans-72" transform="translate(334.179688 0)"/>
      <use xlink:href="#DejaVuSans-75" transform="translate(375.292969 0)"/>
      <use xlink:href="#DejaVuSans-65" transform="translate(438.671875 0)"/>
      <use xlink:href="#DejaVuSans-6e" transform="translate(500.195312 0)"/>
      <use xlink:href="#DejaVuSans-74" transform="translate(563.574219 0)"/>
     </g>
    </g>
   </g>
  </g>
 </g>
 <defs>
  <clipPath id="pf2bd7740de">
   <rect x="14.3" y="10.8" width="190.9" height="334.9"/>
  </clipPath>
 </defs>
</svg>
