<?xml version="1.0" encoding="utf-8" standalone="no"?>
<!DOCTYPE svg PUBLIC "-//W3C//DTD SVG 1.1//EN"
  "http://www.w3.org/Graphics/SVG/1.1/DTD/svg11.dtd">
<svg xmlns:xlink="http://www.w3.org/1999/xlink" width="216pt" height="432pt" viewBox="0 0 216 432" xmlns="http://www.w3.org/2000/svg" version="1.1">
 <metadata>
  <rdf:RDF xmlns:dc="http://purl.org/dc/elements/1.1/" xmlns:cc="http://creativecommons.org/ns#" xmlns:rdf="http://www.w3.org/1999/02/22-rdf-syntax-ns#">
   <cc:Work>
    <dc:type rdf:resource="http://purl.org/dc/dcmitype/StillImage"/>
    <dc:date>2025-05-08T12:41:11.903264</dc:date>
    <dc:format>image/svg+xml</dc:format>
    <dc:creator>
     <cc:Agent>
      <dc:title>Matplotlib v3.10.0, https://matplotlib.org/</dc:title>
     </cc:Agent>
    </dc:creator>
   </cc:Work>
  </rdf:RDF>
 </metadata>
 <defs>
  <style type="text/css">*{stroke-linejoin: round; stroke-linecap: butt}</style>
 </defs>
 <g id="figure_1">
  <g id="patch_1">
   <path d="M 0 432 
L 216 432 
L 216 0 
L 0 0 
z
" style="fill: #ffffff"/>
  </g>
  <g id="axes_1">
   <g id="patch_2">
    <path d="M 12.96 419.04 
L 203.04 419.04 
L 203.04 12.96 
L 12.96 12.96 
z
" style="fill: #ffffff"/>
   </g>
   <g id="matplotlib.axis_1">
    <g id="xtick_1">
     <g id="line2d_1">
      <path d="M 60.48 419.04 
L 60.48 12.96 
" clip-path="url(#p5aacc8a042)" style="fill: none; stroke: #808080; stroke-opacity: 0.37; stroke-width: 1.5; stroke-linecap: round"/>
     </g>
    </g>
    <g id="xtick_2">
     <g id="line2d_2">
      <path d="M 155.52 419.04 
L 155.52 12.96 
" clip-path="url(#p5aacc8a042)" style="fill: none; stroke: #808080; stroke-opacity: 0.37; stroke-width: 1.5; stroke-linecap: round"/>
     </g>
    </g>
   </g>
   <g id="matplotlib.axis_2">
    <g id="ytick_1">
     <g id="line2d_3">
      <path d="M 12.96 393.66 
L 203.04 393.66 
" clip-path="url(#p5aacc8a042)" style="fill: none; stroke: #808080; stroke-opacity: 0.37; stroke-width: 1.5; stroke-linecap: round"/>
     </g>
    </g>
    <g id="ytick_2">
     <g id="line2d_4">
      <path d="M 12.96 309.06 
L 203.04 309.06 
" clip-path="url(#p5aacc8a042)" style="fill: none; stroke: #808080; stroke-opacity: 0.37; stroke-width: 1.5; stroke-linecap: round"/>
     </g>
    </g>
    <g id="ytick_3">
     <g id="line2d_5">
      <path d="M 12.96 224.46 
L 203.04 224.46 
" clip-path="url(#p5aacc8a042)" style="fill: none; stroke: #808080; stroke-opacity: 0.37; stroke-width: 1.5; stroke-linecap: round"/>
     </g>
    </g>
    <g id="ytick_4">
     <g id="line2d_6">
      <path d="M 12.96 139.86 
L 203.04 139.86 
" clip-path="url(#p5aacc8a042)" style="fill: none; stroke: #808080; stroke-opacity: 0.37; stroke-width: 1.5; stroke-linecap: round"/>
     </g>
    </g>
    <g id="ytick_5">
     <g id="line2d_7">
      <path d="M 12.96 55.26 
L 203.04 55.26 
" clip-path="url(#p5aacc8a042)" style="fill: none; stroke: #808080; stroke-opacity: 0.37; stroke-width: 1.5; stroke-linecap: round"/>
     </g>
    </g>
   </g>
   <g id="PathCollection_1">
    <path d="M 60.48 104.763256 
C 62.104031 104.763256 63.661764 104.118021 64.810127 102.969658 
C 65.95849 101.821295 66.603724 100.263562 66.603724 98.639531 
C 66.603724 97.015501 65.95849 95.457767 64.810127 94.309404 
C 63.661764 93.161041 62.104031 92.515807 60.48 92.515807 
C 58.855969 92.515807 57.298236 93.161041 56.149873 94.309404 
C 55.00151 95.457767 54.356276 97.015501 54.356276 98.639531 
C 54.356276 100.263562 55.00151 101.821295 56.149873 102.969658 
C 57.298236 104.118021 58.855969 104.763256 60.48 104.763256 
z
" clip-path="url(#p5aacc8a042)" style="fill-opacity: 0.85; stroke: #ffffff; stroke-opacity: 0.85; stroke-width: 0.979796"/>
    <path d="M 54.356276 200.501054 
L 66.603724 200.501054 
L 66.603724 188.253605 
L 54.356276 188.253605 
z
" clip-path="url(#p5aacc8a042)" style="fill: #ff2a00; fill-opacity: 0.85; stroke: #ffffff; stroke-opacity: 0.85; stroke-width: 0.979796"/>
    <path d="M 60.48 123.183742 
L 69.140254 114.523488 
L 60.48 105.863234 
L 51.819746 114.523488 
z
" clip-path="url(#p5aacc8a042)" style="fill: #0000ff; fill-opacity: 0.85; stroke: #ffffff; stroke-opacity: 0.85; stroke-width: 0.979796"/>
    <path d="M 155.52 162.264818 
C 157.144031 162.264818 158.701764 161.619584 159.850127 160.471221 
C 160.99849 159.322858 161.643724 157.765124 161.643724 156.141094 
C 161.643724 154.517063 160.99849 152.95933 159.850127 151.810967 
C 158.701764 150.662604 157.144031 150.017369 155.52 150.017369 
C 153.895969 150.017369 152.338236 150.662604 151.189873 151.810967 
C 150.04151 152.95933 149.396276 154.517063 149.396276 156.141094 
C 149.396276 157.765124 150.04151 159.322858 151.189873 160.471221 
C 152.338236 161.619584 153.895969 162.264818 155.52 162.264818 
z
" clip-path="url(#p5aacc8a042)" style="fill-opacity: 0.85; stroke: #ffffff; stroke-opacity: 0.85; stroke-width: 0.979796"/>
    <path d="M 149.396276 247.306556 
L 161.643724 247.306556 
L 161.643724 235.059107 
L 149.396276 235.059107 
z
" clip-path="url(#p5aacc8a042)" style="fill: #ff2a00; fill-opacity: 0.85; stroke: #ffffff; stroke-opacity: 0.85; stroke-width: 0.979796"/>
    <path d="M 155.52 167.966796 
L 164.180254 159.306542 
L 155.52 150.646288 
L 146.859746 159.306542 
z
" clip-path="url(#p5aacc8a042)" style="fill: #0000ff; fill-opacity: 0.85; stroke: #ffffff; stroke-opacity: 0.85; stroke-width: 0.979796"/>
   </g>
   <g id="line2d_8"/>
   <g id="line2d_9"/>
   <g id="line2d_10"/>
   <g id="LineCollection_1">
    <path d="M 60.48 109.212278 
L 60.48 88.066784 
" clip-path="url(#p5aacc8a042)" style="fill: none; stroke: #000000; stroke-opacity: 0.75; stroke-width: 3"/>
   </g>
   <g id="LineCollection_2">
    <path d="M 60.48 218.34819 
L 60.48 170.406469 
" clip-path="url(#p5aacc8a042)" style="fill: none; stroke: #ff2a00; stroke-opacity: 0.75; stroke-width: 3"/>
   </g>
   <g id="LineCollection_3">
    <path d="M 60.48 124.39449 
L 60.48 104.652486 
" clip-path="url(#p5aacc8a042)" style="fill: none; stroke: #0000ff; stroke-opacity: 0.75; stroke-width: 3"/>
   </g>
   <g id="LineCollection_4">
    <path d="M 155.52 166.308963 
L 155.52 145.973224 
" clip-path="url(#p5aacc8a042)" style="fill: none; stroke: #000000; stroke-opacity: 0.75; stroke-width: 3"/>
   </g>
   <g id="LineCollection_5">
    <path d="M 155.52 264.933181 
L 155.52 217.432482 
" clip-path="url(#p5aacc8a042)" style="fill: none; stroke: #ff2a00; stroke-opacity: 0.75; stroke-width: 3"/>
   </g>
   <g id="LineCollection_6">
    <path d="M 155.52 169.180241 
L 155.52 149.432842 
" clip-path="url(#p5aacc8a042)" style="fill: none; stroke: #0000ff; stroke-opacity: 0.75; stroke-width: 3"/>
   </g>
   <g id="line2d_11">
    <path d="M 12.96 393.66 
L 203.04 393.66 
" clip-path="url(#p5aacc8a042)" style="fill: none; stroke-dasharray: 6.29,2.72; stroke-dashoffset: 0; stroke: #000000; stroke-width: 1.7"/>
   </g>
   <g id="patch_3">
    <path d="M 12.96 419.04 
L 12.96 12.96 
" style="fill: none; stroke: #000000; stroke-width: 2; stroke-linejoin: miter; stroke-linecap: square"/>
   </g>
   <g id="patch_4">
    <path d="M 203.04 419.04 
L 203.04 12.96 
" style="fill: none; stroke: #000000; stroke-width: 2; stroke-linejoin: miter; stroke-linecap: square"/>
   </g>
   <g id="patch_5">
    <path d="M 12.96 419.04 
L 203.04 419.04 
" style="fill: none; stroke: #000000; stroke-width: 2; stroke-linejoin: miter; stroke-linecap: square"/>
   </g>
   <g id="patch_6">
    <path d="M 12.96 12.96 
L 203.04 12.96 
" style="fill: none; stroke: #000000; stroke-width: 2; stroke-linejoin: miter; stroke-linecap: square"/>
   </g>
   <g id="legend_1">
    <g id="patch_7">
     <path d="M 92.249375 85.300625 
L 195.34 85.300625 
Q 197.54 85.300625 197.54 83.100625 
L 197.54 20.66 
Q 197.54 18.46 195.34 18.46 
L 92.249375 18.46 
Q 90.049375 18.46 90.049375 20.66 
L 90.049375 83.100625 
Q 90.049375 85.300625 92.249375 85.300625 
z
" style="fill: #ffffff; opacity: 0.8; stroke: #cccccc; stroke-linejoin: miter"/>
    </g>
    <g id="text_1">
     <!-- Distractor Emotion -->
     <g style="fill: #262626" transform="translate(94.449375 31.449375) scale(0.12 -0.12)">
      <defs>
       <path id="ArialMT-44" d="M 494 0 
L 494 4581 
L 2072 4581 
Q 2606 4581 2888 4516 
Q 3281 4425 3559 4188 
Q 3922 3881 4101 3404 
Q 4281 2928 4281 2316 
Q 4281 1794 4159 1391 
Q 4038 988 3847 723 
Q 3656 459 3429 307 
Q 3203 156 2883 78 
Q 2563 0 2147 0 
L 494 0 
z
M 1100 541 
L 2078 541 
Q 2531 541 2789 625 
Q 3047 709 3200 863 
Q 3416 1078 3536 1442 
Q 3656 1806 3656 2325 
Q 3656 3044 3420 3430 
Q 3184 3816 2847 3947 
Q 2603 4041 2063 4041 
L 1100 4041 
L 1100 541 
z
" transform="scale(0.015625)"/>
       <path id="ArialMT-69" d="M 425 3934 
L 425 4581 
L 988 4581 
L 988 3934 
L 425 3934 
z
M 425 0 
L 425 3319 
L 988 3319 
L 988 0 
L 425 0 
z
" transform="scale(0.015625)"/>
       <path id="ArialMT-73" d="M 197 991 
L 753 1078 
Q 800 744 1014 566 
Q 1228 388 1613 388 
Q 2000 388 2187 545 
Q 2375 703 2375 916 
Q 2375 1106 2209 1216 
Q 2094 1291 1634 1406 
Q 1016 1563 777 1677 
Q 538 1791 414 1992 
Q 291 2194 291 2438 
Q 291 2659 392 2848 
Q 494 3038 669 3163 
Q 800 3259 1026 3326 
Q 1253 3394 1513 3394 
Q 1903 3394 2198 3281 
Q 2494 3169 2634 2976 
Q 2775 2784 2828 2463 
L 2278 2388 
Q 2241 2644 2061 2787 
Q 1881 2931 1553 2931 
Q 1166 2931 1000 2803 
Q 834 2675 834 2503 
Q 834 2394 903 2306 
Q 972 2216 1119 2156 
Q 1203 2125 1616 2013 
Q 2213 1853 2448 1751 
Q 2684 1650 2818 1456 
Q 2953 1263 2953 975 
Q 2953 694 2789 445 
Q 2625 197 2315 61 
Q 2006 -75 1616 -75 
Q 969 -75 630 194 
Q 291 463 197 991 
z
" transform="scale(0.015625)"/>
       <path id="ArialMT-74" d="M 1650 503 
L 1731 6 
Q 1494 -44 1306 -44 
Q 1000 -44 831 53 
Q 663 150 594 308 
Q 525 466 525 972 
L 525 2881 
L 113 2881 
L 113 3319 
L 525 3319 
L 525 4141 
L 1084 4478 
L 1084 3319 
L 1650 3319 
L 1650 2881 
L 1084 2881 
L 1084 941 
Q 1084 700 1114 631 
Q 1144 563 1211 522 
Q 1278 481 1403 481 
Q 1497 481 1650 503 
z
" transform="scale(0.015625)"/>
       <path id="ArialMT-72" d="M 416 0 
L 416 3319 
L 922 3319 
L 922 2816 
Q 1116 3169 1280 3281 
Q 1444 3394 1641 3394 
Q 1925 3394 2219 3213 
L 2025 2691 
Q 1819 2813 1613 2813 
Q 1428 2813 1281 2702 
Q 1134 2591 1072 2394 
Q 978 2094 978 1738 
L 978 0 
L 416 0 
z
" transform="scale(0.015625)"/>
       <path id="ArialMT-61" d="M 2588 409 
Q 2275 144 1986 34 
Q 1697 -75 1366 -75 
Q 819 -75 525 192 
Q 231 459 231 875 
Q 231 1119 342 1320 
Q 453 1522 633 1644 
Q 813 1766 1038 1828 
Q 1203 1872 1538 1913 
Q 2219 1994 2541 2106 
Q 2544 2222 2544 2253 
Q 2544 2597 2384 2738 
Q 2169 2928 1744 2928 
Q 1347 2928 1158 2789 
Q 969 2650 878 2297 
L 328 2372 
Q 403 2725 575 2942 
Q 747 3159 1072 3276 
Q 1397 3394 1825 3394 
Q 2250 3394 2515 3294 
Q 2781 3194 2906 3042 
Q 3031 2891 3081 2659 
Q 3109 2516 3109 2141 
L 3109 1391 
Q 3109 606 3145 398 
Q 3181 191 3288 0 
L 2700 0 
Q 2613 175 2588 409 
z
M 2541 1666 
Q 2234 1541 1622 1453 
Q 1275 1403 1131 1340 
Q 988 1278 909 1158 
Q 831 1038 831 891 
Q 831 666 1001 516 
Q 1172 366 1500 366 
Q 1825 366 2078 508 
Q 2331 650 2450 897 
Q 2541 1088 2541 1459 
L 2541 1666 
z
" transform="scale(0.015625)"/>
       <path id="ArialMT-63" d="M 2588 1216 
L 3141 1144 
Q 3050 572 2676 248 
Q 2303 -75 1759 -75 
Q 1078 -75 664 370 
Q 250 816 250 1647 
Q 250 2184 428 2587 
Q 606 2991 970 3192 
Q 1334 3394 1763 3394 
Q 2303 3394 2647 3120 
Q 2991 2847 3088 2344 
L 2541 2259 
Q 2463 2594 2264 2762 
Q 2066 2931 1784 2931 
Q 1359 2931 1093 2626 
Q 828 2322 828 1663 
Q 828 994 1084 691 
Q 1341 388 1753 388 
Q 2084 388 2306 591 
Q 2528 794 2588 1216 
z
" transform="scale(0.015625)"/>
       <path id="ArialMT-6f" d="M 213 1659 
Q 213 2581 725 3025 
Q 1153 3394 1769 3394 
Q 2453 3394 2887 2945 
Q 3322 2497 3322 1706 
Q 3322 1066 3130 698 
Q 2938 331 2570 128 
Q 2203 -75 1769 -75 
Q 1072 -75 642 372 
Q 213 819 213 1659 
z
M 791 1659 
Q 791 1022 1069 705 
Q 1347 388 1769 388 
Q 2188 388 2466 706 
Q 2744 1025 2744 1678 
Q 2744 2294 2464 2611 
Q 2184 2928 1769 2928 
Q 1347 2928 1069 2612 
Q 791 2297 791 1659 
z
" transform="scale(0.015625)"/>
       <path id="ArialMT-20" transform="scale(0.015625)"/>
       <path id="ArialMT-45" d="M 506 0 
L 506 4581 
L 3819 4581 
L 3819 4041 
L 1113 4041 
L 1113 2638 
L 3647 2638 
L 3647 2100 
L 1113 2100 
L 1113 541 
L 3925 541 
L 3925 0 
L 506 0 
z
" transform="scale(0.015625)"/>
       <path id="ArialMT-6d" d="M 422 0 
L 422 3319 
L 925 3319 
L 925 2853 
Q 1081 3097 1340 3245 
Q 1600 3394 1931 3394 
Q 2300 3394 2536 3241 
Q 2772 3088 2869 2813 
Q 3263 3394 3894 3394 
Q 4388 3394 4653 3120 
Q 4919 2847 4919 2278 
L 4919 0 
L 4359 0 
L 4359 2091 
Q 4359 2428 4304 2576 
Q 4250 2725 4106 2815 
Q 3963 2906 3769 2906 
Q 3419 2906 3187 2673 
Q 2956 2441 2956 1928 
L 2956 0 
L 2394 0 
L 2394 2156 
Q 2394 2531 2256 2718 
Q 2119 2906 1806 2906 
Q 1569 2906 1367 2781 
Q 1166 2656 1075 2415 
Q 984 2175 984 1722 
L 984 0 
L 422 0 
z
" transform="scale(0.015625)"/>
       <path id="ArialMT-6e" d="M 422 0 
L 422 3319 
L 928 3319 
L 928 2847 
Q 1294 3394 1984 3394 
Q 2284 3394 2536 3286 
Q 2788 3178 2913 3003 
Q 3038 2828 3088 2588 
Q 3119 2431 3119 2041 
L 3119 0 
L 2556 0 
L 2556 2019 
Q 2556 2363 2490 2533 
Q 2425 2703 2258 2804 
Q 2091 2906 1866 2906 
Q 1506 2906 1245 2678 
Q 984 2450 984 1813 
L 984 0 
L 422 0 
z
" transform="scale(0.015625)"/>
      </defs>
      <use xlink:href="#ArialMT-44"/>
      <use xlink:href="#ArialMT-69" transform="translate(72.216797 0)"/>
      <use xlink:href="#ArialMT-73" transform="translate(94.433594 0)"/>
      <use xlink:href="#ArialMT-74" transform="translate(144.433594 0)"/>
      <use xlink:href="#ArialMT-72" transform="translate(172.216797 0)"/>
      <use xlink:href="#ArialMT-61" transform="translate(205.517578 0)"/>
      <use xlink:href="#ArialMT-63" transform="translate(261.132812 0)"/>
      <use xlink:href="#ArialMT-74" transform="translate(311.132812 0)"/>
      <use xlink:href="#ArialMT-6f" transform="translate(338.916016 0)"/>
      <use xlink:href="#ArialMT-72" transform="translate(394.53125 0)"/>
      <use xlink:href="#ArialMT-20" transform="translate(427.832031 0)"/>
      <use xlink:href="#ArialMT-45" transform="translate(455.615234 0)"/>
      <use xlink:href="#ArialMT-6d" transform="translate(522.314453 0)"/>
      <use xlink:href="#ArialMT-6f" transform="translate(605.615234 0)"/>
      <use xlink:href="#ArialMT-74" transform="translate(661.230469 0)"/>
      <use xlink:href="#ArialMT-69" transform="translate(689.013672 0)"/>
      <use xlink:href="#ArialMT-6f" transform="translate(711.230469 0)"/>
      <use xlink:href="#ArialMT-6e" transform="translate(766.845703 0)"/>
     </g>
    </g>
    <g id="line2d_12">
     <defs>
      <path id="mc9f8e57aec" d="M 0 6.123724 
C 1.624031 6.123724 3.181764 5.47849 4.330127 4.330127 
C 5.47849 3.181764 6.123724 1.624031 6.123724 0 
C 6.123724 -1.624031 5.47849 -3.181764 4.330127 -4.330127 
C 3.181764 -5.47849 1.624031 -6.123724 0 -6.123724 
C -1.624031 -6.123724 -3.181764 -5.47849 -4.330127 -4.330127 
C -5.47849 -3.181764 -6.123724 -1.624031 -6.123724 0 
C -6.123724 1.624031 -5.47849 3.181764 -4.330127 4.330127 
C -3.181764 5.47849 -1.624031 6.123724 0 6.123724 
z
" style="stroke: #ffffff; stroke-opacity: 0.85; stroke-width: 0.979796"/>
     </defs>
     <g>
      <use xlink:href="#mc9f8e57aec" x="110.65375" y="43.357969" style="fill-opacity: 0.85; stroke: #ffffff; stroke-opacity: 0.85; stroke-width: 0.979796"/>
     </g>
    </g>
    <g id="text_2">
     <!-- congruent -->
     <g style="fill: #262626" transform="translate(130.45375 47.207969) scale(0.11 -0.11)">
      <defs>
       <path id="ArialMT-67" d="M 319 -275 
L 866 -356 
Q 900 -609 1056 -725 
Q 1266 -881 1628 -881 
Q 2019 -881 2231 -725 
Q 2444 -569 2519 -288 
Q 2563 -116 2559 434 
Q 2191 0 1641 0 
Q 956 0 581 494 
Q 206 988 206 1678 
Q 206 2153 378 2554 
Q 550 2956 876 3175 
Q 1203 3394 1644 3394 
Q 2231 3394 2613 2919 
L 2613 3319 
L 3131 3319 
L 3131 450 
Q 3131 -325 2973 -648 
Q 2816 -972 2473 -1159 
Q 2131 -1347 1631 -1347 
Q 1038 -1347 672 -1080 
Q 306 -813 319 -275 
z
M 784 1719 
Q 784 1066 1043 766 
Q 1303 466 1694 466 
Q 2081 466 2343 764 
Q 2606 1063 2606 1700 
Q 2606 2309 2336 2618 
Q 2066 2928 1684 2928 
Q 1309 2928 1046 2623 
Q 784 2319 784 1719 
z
" transform="scale(0.015625)"/>
       <path id="ArialMT-75" d="M 2597 0 
L 2597 488 
Q 2209 -75 1544 -75 
Q 1250 -75 995 37 
Q 741 150 617 320 
Q 494 491 444 738 
Q 409 903 409 1263 
L 409 3319 
L 972 3319 
L 972 1478 
Q 972 1038 1006 884 
Q 1059 663 1231 536 
Q 1403 409 1656 409 
Q 1909 409 2131 539 
Q 2353 669 2445 892 
Q 2538 1116 2538 1541 
L 2538 3319 
L 3100 3319 
L 3100 0 
L 2597 0 
z
" transform="scale(0.015625)"/>
       <path id="ArialMT-65" d="M 2694 1069 
L 3275 997 
Q 3138 488 2766 206 
Q 2394 -75 1816 -75 
Q 1088 -75 661 373 
Q 234 822 234 1631 
Q 234 2469 665 2931 
Q 1097 3394 1784 3394 
Q 2450 3394 2872 2941 
Q 3294 2488 3294 1666 
Q 3294 1616 3291 1516 
L 816 1516 
Q 847 969 1125 678 
Q 1403 388 1819 388 
Q 2128 388 2347 550 
Q 2566 713 2694 1069 
z
M 847 1978 
L 2700 1978 
Q 2663 2397 2488 2606 
Q 2219 2931 1791 2931 
Q 1403 2931 1139 2672 
Q 875 2413 847 1978 
z
" transform="scale(0.015625)"/>
      </defs>
      <use xlink:href="#ArialMT-63"/>
      <use xlink:href="#ArialMT-6f" transform="translate(50 0)"/>
      <use xlink:href="#ArialMT-6e" transform="translate(105.615234 0)"/>
      <use xlink:href="#ArialMT-67" transform="translate(161.230469 0)"/>
      <use xlink:href="#ArialMT-72" transform="translate(216.845703 0)"/>
      <use xlink:href="#ArialMT-75" transform="translate(250.146484 0)"/>
      <use xlink:href="#ArialMT-65" transform="translate(305.761719 0)"/>
      <use xlink:href="#ArialMT-6e" transform="translate(361.376953 0)"/>
      <use xlink:href="#ArialMT-74" transform="translate(416.992188 0)"/>
     </g>
    </g>
    <g id="line2d_13">
     <defs>
      <path id="m61ddc6a5ae" d="M -6.123724 6.123724 
L 6.123724 6.123724 
L 6.123724 -6.123724 
L -6.123724 -6.123724 
z
" style="stroke: #ffffff; stroke-opacity: 0.85; stroke-width: 0.979796; stroke-linejoin: miter"/>
     </defs>
     <g>
      <use xlink:href="#m61ddc6a5ae" x="110.65375" y="59.046719" style="fill: #ff2a00; fill-opacity: 0.85; stroke: #ffffff; stroke-opacity: 0.85; stroke-width: 0.979796; stroke-linejoin: miter"/>
     </g>
    </g>
    <g id="text_3">
     <!-- incongruent -->
     <g style="fill: #262626" transform="translate(130.45375 62.896719) scale(0.11 -0.11)">
      <use xlink:href="#ArialMT-69"/>
      <use xlink:href="#ArialMT-6e" transform="translate(22.216797 0)"/>
      <use xlink:href="#ArialMT-63" transform="translate(77.832031 0)"/>
      <use xlink:href="#ArialMT-6f" transform="translate(127.832031 0)"/>
      <use xlink:href="#ArialMT-6e" transform="translate(183.447266 0)"/>
      <use xlink:href="#ArialMT-67" transform="translate(239.0625 0)"/>
      <use xlink:href="#ArialMT-72" transform="translate(294.677734 0)"/>
      <use xlink:href="#ArialMT-75" transform="translate(327.978516 0)"/>
      <use xlink:href="#ArialMT-65" transform="translate(383.59375 0)"/>
      <use xlink:href="#ArialMT-6e" transform="translate(439.208984 0)"/>
      <use xlink:href="#ArialMT-74" transform="translate(494.824219 0)"/>
     </g>
    </g>
    <g id="line2d_14">
     <defs>
      <path id="m2fddc89b1b" d="M -0 8.660254 
L 8.660254 0 
L 0 -8.660254 
L -8.660254 -0 
z
" style="stroke: #ffffff; stroke-opacity: 0.85; stroke-width: 0.979796; stroke-linejoin: miter"/>
     </defs>
     <g>
      <use xlink:href="#m2fddc89b1b" x="110.65375" y="74.735469" style="fill: #0000ff; fill-opacity: 0.85; stroke: #ffffff; stroke-opacity: 0.85; stroke-width: 0.979796; stroke-linejoin: miter"/>
     </g>
    </g>
    <g id="text_4">
     <!-- singleTrial -->
     <g style="fill: #262626" transform="translate(130.45375 78.585469) scale(0.11 -0.11)">
      <defs>
       <path id="ArialMT-6c" d="M 409 0 
L 409 4581 
L 972 4581 
L 972 0 
L 409 0 
z
" transform="scale(0.015625)"/>
       <path id="ArialMT-54" d="M 1659 0 
L 1659 4041 
L 150 4041 
L 150 4581 
L 3781 4581 
L 3781 4041 
L 2266 4041 
L 2266 0 
L 1659 0 
z
" transform="scale(0.015625)"/>
      </defs>
      <use xlink:href="#ArialMT-73"/>
      <use xlink:href="#ArialMT-69" transform="translate(50 0)"/>
      <use xlink:href="#ArialMT-6e" transform="translate(72.216797 0)"/>
      <use xlink:href="#ArialMT-67" transform="translate(127.832031 0)"/>
      <use xlink:href="#ArialMT-6c" transform="translate(183.447266 0)"/>
      <use xlink:href="#ArialMT-65" transform="translate(205.664062 0)"/>
      <use xlink:href="#ArialMT-54" transform="translate(261.279297 0)"/>
      <use xlink:href="#ArialMT-72" transform="translate(318.613281 0)"/>
      <use xlink:href="#ArialMT-69" transform="translate(351.914062 0)"/>
      <use xlink:href="#ArialMT-61" transform="translate(374.130859 0)"/>
      <use xlink:href="#ArialMT-6c" transform="translate(429.746094 0)"/>
     </g>
    </g>
   </g>
  </g>
 </g>
 <defs>
  <clipPath id="p5aacc8a042">
   <rect x="12.96" y="12.96" width="190.08" height="406.08"/>
  </clipPath>
 </defs>
</svg>
